<svg width="141" height="144" viewBox="0 0 141 144" fill="none" xmlns="http://www.w3.org/2000/svg">
<path fill-rule="evenodd" clip-rule="evenodd" d="M71.2529 58.1851L71.5884 57.6185C71.4781 57.8084 71.3663 57.9972 71.2529 58.1851ZM48.7121 43.6987L48.3123 44.4108C48.4536 44.1786 48.587 43.9412 48.7121 43.6987Z" fill="url(#paint0_linear_72_37)"/>
<path fill-rule="evenodd" clip-rule="evenodd" d="M48.3123 44.4108C48.4536 44.1786 48.587 43.9412 48.7121 43.6987L48.3123 44.4108Z" fill="url(#paint1_linear_72_37)"/>
<path fill-rule="evenodd" clip-rule="evenodd" d="M71.5884 57.6185L71.2529 58.1851C64.5337 69.3131 52.3241 76.7535 38.3767 76.7535C21.2334 76.7535 6.71545 65.5126 1.79152 49.9994C0.627833 46.3331 0 42.4282 0 38.3767C0 34.3252 0.627833 30.4203 1.79152 26.7541C6.71545 11.2409 21.2334 0 38.3767 0H73.2447H105.707H126.972C134.36 0 140.349 5.9891 140.349 13.377C140.349 20.7618 134.365 26.7489 126.982 26.7541L126.972 26.7541L126.963 26.7541H89.8649L76.1001 49.9994L71.5884 57.6185ZM48.3123 44.4108C46.2729 47.7616 42.5862 49.9994 38.3767 49.9994C31.9577 49.9994 26.7541 44.7957 26.7541 38.3767C26.7541 31.9577 31.9577 26.7541 38.3767 26.7541H58.2249L48.7121 43.6987L48.3123 44.4108Z" fill="url(#paint2_linear_72_37)"/>
<path opacity="0.5" d="M99.0835 10.9931L89.9111 26.7541H126.972C134.36 26.7541 140.349 20.765 140.349 13.377C140.349 5.9891 134.36 0 126.972 0H118.2C110.325 0 103.044 4.18689 99.0835 10.9931Z" fill="url(#paint3_linear_72_37)"/>
<path fill-rule="evenodd" clip-rule="evenodd" d="M69.0962 84.8631L68.7607 85.4297C68.871 85.2398 68.9828 85.051 69.0962 84.8631ZM91.6371 99.3495L92.0368 98.6374C91.8955 98.8696 91.7621 99.107 91.6371 99.3495Z" fill="url(#paint4_linear_72_37)"/>
<path fill-rule="evenodd" clip-rule="evenodd" d="M92.0368 98.6374C91.8955 98.8696 91.7621 99.107 91.6371 99.3495L92.0368 98.6374Z" fill="url(#paint5_linear_72_37)"/>
<path fill-rule="evenodd" clip-rule="evenodd" d="M68.7607 85.4297L69.0962 84.8631C75.8155 73.7351 88.025 66.2947 101.972 66.2947C119.116 66.2947 133.634 77.5356 138.558 93.0488C139.721 96.7151 140.349 100.62 140.349 104.671C140.349 108.723 139.721 112.628 138.558 116.294C133.634 131.807 119.116 143.048 101.972 143.048H67.1044H34.6416H13.377C5.98904 143.048 -4.57764e-05 137.059 -4.57764e-05 129.671C-4.57764e-05 122.286 5.98387 116.299 13.3674 116.294L13.377 116.294L13.3866 116.294H50.4842L64.2491 93.0488L68.7607 85.4297ZM92.0368 98.6374C94.0762 95.2866 97.763 93.0488 101.972 93.0488C108.391 93.0488 113.595 98.2525 113.595 104.671C113.595 111.09 108.391 116.294 101.972 116.294H82.1243L91.6371 99.3495L92.0368 98.6374Z" fill="url(#paint6_linear_72_37)"/>
<path opacity="0.5" d="M41.2656 132.055L50.438 116.294H13.377C5.98911 116.294 3.8147e-06 122.283 3.8147e-06 129.671C3.8147e-06 137.059 5.9891 143.048 13.377 143.048H22.1489C30.0237 143.048 37.3046 138.861 41.2656 132.055Z" fill="url(#paint7_linear_72_37)"/>
<defs>
<linearGradient id="paint0_linear_72_37" x1="155.042" y1="-3.72803" x2="9.64899" y2="60.9642" gradientUnits="userSpaceOnUse">
<stop stop-color="#DFDCFF"/>
<stop offset="1" stop-color="#6E5BFF"/>
</linearGradient>
<linearGradient id="paint1_linear_72_37" x1="155.042" y1="-3.72803" x2="9.64899" y2="60.9642" gradientUnits="userSpaceOnUse">
<stop stop-color="#DFDCFF"/>
<stop offset="1" stop-color="#6E5BFF"/>
</linearGradient>
<linearGradient id="paint2_linear_72_37" x1="155.042" y1="-3.72803" x2="9.64899" y2="60.9642" gradientUnits="userSpaceOnUse">
<stop stop-color="#DFDCFF"/>
<stop offset="1" stop-color="#6E5BFF"/>
</linearGradient>
<linearGradient id="paint3_linear_72_37" x1="140.349" y1="13.377" x2="98.2444" y2="13.377" gradientUnits="userSpaceOnUse">
<stop stop-color="#DCDEFF"/>
<stop offset="1" stop-color="#5D68FF"/>
</linearGradient>
<linearGradient id="paint4_linear_72_37" x1="-14.6928" y1="146.776" x2="130.7" y2="82.084" gradientUnits="userSpaceOnUse">
<stop stop-color="#BCE0FA"/>
<stop offset="1" stop-color="#38ABFE"/>
</linearGradient>
<linearGradient id="paint5_linear_72_37" x1="-14.6928" y1="146.776" x2="130.7" y2="82.084" gradientUnits="userSpaceOnUse">
<stop stop-color="#BCE0FA"/>
<stop offset="1" stop-color="#38ABFE"/>
</linearGradient>
<linearGradient id="paint6_linear_72_37" x1="-14.6928" y1="146.776" x2="130.7" y2="82.084" gradientUnits="userSpaceOnUse">
<stop stop-color="#BCE0FA"/>
<stop offset="1" stop-color="#38ABFE"/>
</linearGradient>
<linearGradient id="paint7_linear_72_37" x1="9.06925e-06" y1="129.671" x2="44.0784" y2="129.671" gradientUnits="userSpaceOnUse">
<stop stop-color="#CBEBFF"/>
<stop offset="1" stop-color="#248AFF"/>
</linearGradient>
</defs>
</svg>
