<svg width="766" height="145" viewBox="0 0 766 145" fill="none" xmlns="http://www.w3.org/2000/svg">
<path fill-rule="evenodd" clip-rule="evenodd" d="M71.2529 58.6644L71.5884 58.0978C71.4781 58.2877 71.3663 58.4765 71.2529 58.6644ZM48.7121 44.178L48.3123 44.8901C48.4536 44.6579 48.587 44.4205 48.7121 44.178Z" fill="url(#paint0_linear_72_16)"/>
<path fill-rule="evenodd" clip-rule="evenodd" d="M48.3123 44.8901C48.4536 44.6579 48.587 44.4205 48.7121 44.178L48.3123 44.8901Z" fill="url(#paint1_linear_72_16)"/>
<path fill-rule="evenodd" clip-rule="evenodd" d="M71.5884 58.0978L71.2529 58.6644C64.5337 69.7924 52.3241 77.2328 38.3767 77.2328C21.2334 77.2328 6.71545 65.9919 1.79152 50.4787C0.627833 46.8124 0 42.9076 0 38.856C0 34.8045 0.627833 30.8996 1.79152 27.2334C6.71545 11.7202 21.2334 0.479309 38.3767 0.479309H73.2447H105.707H126.972C134.36 0.479309 140.349 6.46841 140.349 13.8563C140.349 21.2411 134.365 27.2282 126.982 27.2334L126.972 27.2334L126.963 27.2334H89.8649L76.1001 50.4787L71.5884 58.0978ZM48.3123 44.8901C46.2729 48.2409 42.5862 50.4787 38.3767 50.4787C31.9577 50.4787 26.7541 45.2751 26.7541 38.856C26.7541 32.437 31.9577 27.2334 38.3767 27.2334H58.2249L48.7121 44.178L48.3123 44.8901Z" fill="url(#paint2_linear_72_16)"/>
<path opacity="0.5" d="M99.0835 11.4724L89.9111 27.2334H126.972C134.36 27.2334 140.349 21.2443 140.349 13.8563C140.349 6.46841 134.36 0.479309 126.972 0.479309H118.2C110.325 0.479309 103.044 4.6662 99.0835 11.4724Z" fill="url(#paint3_linear_72_16)"/>
<path fill-rule="evenodd" clip-rule="evenodd" d="M69.0962 85.3425L68.7607 85.9091C68.871 85.7192 68.9828 85.5303 69.0962 85.3425ZM91.6371 99.8288L92.0368 99.1168C91.8955 99.3489 91.7621 99.5864 91.6371 99.8288Z" fill="url(#paint4_linear_72_16)"/>
<path fill-rule="evenodd" clip-rule="evenodd" d="M92.0368 99.1168C91.8955 99.3489 91.7621 99.5864 91.6371 99.8288L92.0368 99.1168Z" fill="url(#paint5_linear_72_16)"/>
<path fill-rule="evenodd" clip-rule="evenodd" d="M68.7607 85.9091L69.0962 85.3425C75.8155 74.2144 88.025 66.7741 101.972 66.7741C119.116 66.7741 133.634 78.0149 138.558 93.5281C139.721 97.1944 140.349 101.099 140.349 105.151C140.349 109.202 139.721 113.107 138.558 116.773C133.634 132.287 119.116 143.528 101.972 143.528H67.1044H34.6416H13.377C5.98904 143.528 -4.57764e-05 137.538 -4.57764e-05 130.15C-4.57764e-05 122.766 5.98387 116.779 13.3674 116.773L13.377 116.773L13.3866 116.773H50.4842L64.2491 93.5281L68.7607 85.9091ZM92.0368 99.1168C94.0762 95.7659 97.763 93.5281 101.972 93.5281C108.391 93.5281 113.595 98.7318 113.595 105.151C113.595 111.57 108.391 116.773 101.972 116.773H82.1243L91.6371 99.8288L92.0368 99.1168Z" fill="url(#paint6_linear_72_16)"/>
<path opacity="0.5" d="M41.2656 132.534L50.438 116.773H13.377C5.98911 116.773 3.8147e-06 122.763 3.8147e-06 130.15C3.8147e-06 137.538 5.9891 143.528 13.377 143.528H22.1489C30.0237 143.528 37.3046 139.341 41.2656 132.534Z" fill="url(#paint7_linear_72_16)"/>
<path d="M206.322 49.134C207.882 50.1513 209.679 51.1008 211.713 51.9824C213.816 52.7962 216.02 53.5083 218.326 54.1187C220.699 54.6612 223.107 55.102 225.548 55.4411C228.057 55.7124 230.465 55.848 232.771 55.848C236.229 55.848 238.874 55.475 240.705 54.729C242.537 53.983 243.452 52.8979 243.452 51.4738C243.452 50.1174 242.401 49.1001 240.299 48.422C238.264 47.7438 235.687 47.1334 232.567 46.5909C229.448 45.9805 226.057 45.3023 222.395 44.5563C218.8 43.7425 215.443 42.5557 212.324 40.9959C209.204 39.3683 206.593 37.1981 204.491 34.4854C202.456 31.7727 201.439 28.1783 201.439 23.7023C201.439 20.108 202.219 16.8866 203.779 14.0383C205.338 11.1221 207.509 8.68067 210.289 6.71395C213.137 4.67942 216.528 3.1196 220.462 2.03452C224.463 0.949431 228.905 0.406887 233.788 0.406887C239.756 0.406887 245.012 1.18679 249.556 2.7466C254.167 4.2386 258.372 6.44268 262.17 9.35885L255.049 23.9058C252.54 22.0747 249.522 20.6844 245.995 19.735C242.469 18.7177 238.467 18.2091 233.991 18.2091C230.058 18.2091 227.04 18.616 224.938 19.4298C222.835 20.2436 221.784 21.5322 221.784 23.2954C221.784 24.6518 222.802 25.669 224.836 26.3472C226.938 27.0254 229.549 27.6697 232.669 28.28C235.789 28.8226 239.146 29.5008 242.74 30.3146C246.402 31.1284 249.793 32.3491 252.913 33.9767C256.032 35.6044 258.609 37.7745 260.644 40.4873C262.746 43.2 263.797 46.7943 263.797 51.2703C263.797 54.5934 263.051 57.6452 261.559 60.4257C260.067 63.2062 257.965 65.5799 255.252 67.5466C252.607 69.4455 249.386 70.9375 245.588 72.0226C241.791 73.1077 237.586 73.6502 232.974 73.6502C229.583 73.6502 226.26 73.4467 223.005 73.0398C219.818 72.6329 216.766 72.0565 213.85 71.3105C211.001 70.4967 208.356 69.5472 205.915 68.4621C203.541 67.377 201.507 66.1563 199.811 64.8L206.322 49.134ZM270.787 72.6329V-2.09711e-05H290.115V27.3645C292.285 24.9909 294.795 23.1598 297.643 21.8712C300.559 20.5827 303.747 19.9384 307.205 19.9384C313.716 19.9384 318.802 21.8034 322.464 25.5334C326.127 29.2634 327.958 34.4854 327.958 41.1993V72.6329H308.63V45.3701C308.63 39.8091 306.019 37.0285 300.797 37.0285C297.677 37.0285 295.134 37.978 293.167 39.8769C291.268 41.708 290.251 44.2511 290.115 47.5064V72.6329H270.787ZM334.115 46.7943C334.115 42.7931 334.692 39.1648 335.845 35.9095C336.998 32.5865 338.625 29.7381 340.728 27.3645C342.83 24.9909 345.339 23.1598 348.255 21.8712C351.239 20.5827 354.528 19.9384 358.123 19.9384C365.786 19.9384 371.517 22.2442 375.315 26.8559L375.722 20.9557H393.117V72.6329H374.908L374.704 66.6311C372.738 68.869 370.33 70.5984 367.482 71.8191C364.701 73.0398 361.582 73.6502 358.123 73.6502C354.528 73.6502 351.239 73.0059 348.255 71.7174C345.339 70.4289 342.83 68.6317 340.728 66.3259C338.625 63.9522 336.998 61.1039 335.845 57.7808C334.692 54.4577 334.115 50.7956 334.115 46.7943ZM353.749 46.7943C353.749 50.253 354.63 52.9997 356.393 55.0342C358.157 57.0009 360.598 57.9843 363.718 57.9843C366.973 57.9843 369.482 57.0009 371.246 55.0342C373.077 52.9997 373.992 50.2191 373.992 46.6926C373.992 43.2339 373.077 40.5212 371.246 38.5544C369.482 36.5877 367.075 35.6044 364.023 35.6044C360.768 35.6044 358.225 36.5877 356.393 38.5544C354.63 40.5212 353.749 43.2678 353.749 46.7943ZM402.118 72.6329V20.9557H420.632L420.938 27.9749C423.04 25.4656 425.583 23.4989 428.567 22.0747C431.551 20.6505 434.874 19.9384 438.536 19.9384C445.047 19.9384 450.133 21.8034 453.795 25.5334C457.457 29.2634 459.289 34.4854 459.289 41.1993V72.6329H439.96V45.3701C439.96 39.8091 437.349 37.0285 432.127 37.0285C428.94 37.0285 426.397 37.978 424.498 39.8769C422.599 41.708 421.582 44.2511 421.446 47.5064V72.6329H402.118ZM511.436 72.6329L496.381 44.6581L487.734 55.9497V72.6329H467.897V1.42415H487.734V28.5852L508.995 1.42415H532.494L508.791 30.1111L533.816 72.6329H511.436ZM538.714 72.6329V-2.09711e-05H558.042V27.3645C560.212 24.9909 562.722 23.1598 565.57 21.8712C568.486 20.5827 571.674 19.9384 575.132 19.9384C581.643 19.9384 586.729 21.8034 590.391 25.5334C594.054 29.2634 595.885 34.4854 595.885 41.1993V72.6329H576.557V45.3701C576.557 39.8091 573.946 37.0285 568.724 37.0285C565.604 37.0285 563.061 37.978 561.094 39.8769C559.195 41.708 558.178 44.2511 558.042 47.5064V72.6329H538.714ZM602.042 46.7943C602.042 42.7931 602.619 39.1648 603.772 35.9095C604.925 32.5865 606.552 29.7381 608.655 27.3645C610.757 24.9909 613.266 23.1598 616.182 21.8712C619.166 20.5827 622.455 19.9384 626.05 19.9384C633.713 19.9384 639.444 22.2442 643.242 26.8559L643.649 20.9557H661.044V72.6329H642.835L642.631 66.6311C640.665 68.869 638.257 70.5984 635.409 71.8191C632.628 73.0398 629.509 73.6502 626.05 73.6502C622.455 73.6502 619.166 73.0059 616.182 71.7174C613.266 70.4289 610.757 68.6317 608.655 66.3259C606.552 63.9522 604.925 61.1039 603.772 57.7808C602.619 54.4577 602.042 50.7956 602.042 46.7943ZM621.676 46.7943C621.676 50.253 622.557 52.9997 624.32 55.0342C626.084 57.0009 628.525 57.9843 631.645 57.9843C634.9 57.9843 637.409 57.0009 639.173 55.0342C641.004 52.9997 641.919 50.2191 641.919 46.6926C641.919 43.2339 641.004 40.5212 639.173 38.5544C637.409 36.5877 635.002 35.6044 631.95 35.6044C628.695 35.6044 626.152 36.5877 624.32 38.5544C622.557 40.5212 621.676 43.2678 621.676 46.7943ZM670.045 72.6329V20.9557H688.559L688.763 27.7714C690.73 25.33 693.103 23.4311 695.884 22.0747C698.664 20.6505 701.716 19.9384 705.039 19.9384C709.108 19.9384 712.601 20.7862 715.517 22.4816C718.433 24.1771 720.671 26.6185 722.231 29.8059C724.265 26.6863 726.876 24.2788 730.064 22.5833C733.251 20.8201 736.88 19.9384 740.949 19.9384C747.324 19.9384 752.308 21.8034 755.903 25.5334C759.565 29.2634 761.396 34.4854 761.396 41.1993V72.6329H742.068V45.3701C742.068 42.6574 741.457 40.589 740.237 39.1648C739.016 37.7406 737.287 37.0285 735.049 37.0285C732.2 37.0285 729.86 37.978 728.029 39.8769C726.266 41.708 725.384 44.2511 725.384 47.5064V72.6329H706.056V45.3701C706.056 42.6574 705.446 40.589 704.225 39.1648C703.005 37.7406 701.275 37.0285 699.037 37.0285C696.189 37.0285 693.849 37.978 692.018 39.8769C690.255 41.708 689.373 44.2511 689.373 47.5064V72.6329H670.045Z" fill="black"/>
<path d="M226.378 116.193H214.912V144.226H209.998V116.193H198.532V111.466H226.378V116.193ZM249.783 111.466H271.124V116.099H254.697V125.038H270.422L270.469 129.391H254.697V139.64H271.545V144.226H249.783V111.466ZM309.327 140.014C311.667 140.014 313.773 139.546 315.645 138.61C317.548 137.643 319.046 136.177 320.138 134.211L323.461 137.159C321.963 139.593 319.966 141.465 317.47 142.776C315.005 144.055 312.229 144.694 309.14 144.694C306.769 144.694 304.553 144.273 302.494 143.431C300.466 142.557 298.703 141.371 297.206 139.874C295.739 138.376 294.585 136.598 293.742 134.539C292.9 132.479 292.479 130.249 292.479 127.846C292.479 125.444 292.9 123.213 293.742 121.154C294.585 119.094 295.739 117.316 297.206 115.818C298.672 114.321 300.404 113.151 302.4 112.308C304.429 111.435 306.613 110.998 308.953 110.998C311.854 110.998 314.491 111.606 316.862 112.823C319.233 114.04 321.183 115.772 322.712 118.018L319.061 121.154C318.001 119.375 316.612 118.018 314.896 117.082C313.18 116.146 311.215 115.678 308.999 115.678C307.315 115.678 305.77 115.974 304.366 116.567C302.993 117.129 301.792 117.94 300.762 119.001C299.764 120.062 298.984 121.341 298.422 122.839C297.892 124.305 297.627 125.943 297.627 127.753C297.627 129.593 297.908 131.263 298.469 132.76C299.031 134.258 299.826 135.553 300.856 136.645C301.886 137.705 303.118 138.532 304.553 139.125C305.989 139.718 307.58 140.014 309.327 140.014ZM368.18 129.578H351.051V144.226H346.137V111.466H351.051V124.898H368.18V111.466H373.094V144.226H368.18V129.578ZM403.764 111.466L420.472 136.551V111.466H425.339V144.226H420.097L403.249 119.001V144.226H398.382V111.466H403.764ZM448.893 127.846C448.893 125.444 449.298 123.213 450.11 121.154C450.952 119.094 452.106 117.316 453.573 115.818C455.07 114.321 456.818 113.151 458.814 112.308C460.842 111.435 463.042 110.998 465.413 110.998C467.753 110.998 469.922 111.435 471.919 112.308C473.947 113.151 475.694 114.321 477.16 115.818C478.658 117.316 479.812 119.094 480.623 121.154C481.466 123.213 481.887 125.444 481.887 127.846C481.887 130.249 481.466 132.479 480.623 134.539C479.812 136.598 478.658 138.376 477.16 139.874C475.694 141.371 473.947 142.557 471.919 143.431C469.922 144.273 467.753 144.694 465.413 144.694C463.042 144.694 460.842 144.273 458.814 143.431C456.818 142.557 455.07 141.371 453.573 139.874C452.106 138.376 450.952 136.598 450.11 134.539C449.298 132.479 448.893 130.249 448.893 127.846ZM453.994 127.846C453.994 129.656 454.259 131.309 454.79 132.807C455.351 134.273 456.131 135.553 457.13 136.645C458.128 137.705 459.329 138.532 460.733 139.125C462.137 139.718 463.697 140.014 465.413 140.014C467.098 140.014 468.643 139.718 470.047 139.125C471.451 138.532 472.636 137.705 473.603 136.645C474.602 135.584 475.366 134.305 475.897 132.807C476.458 131.309 476.739 129.656 476.739 127.846C476.739 126.037 476.458 124.383 475.897 122.885C475.366 121.388 474.602 120.108 473.603 119.048C472.605 117.987 471.404 117.16 470 116.567C468.627 115.974 467.083 115.678 465.367 115.678C463.651 115.678 462.091 115.974 460.686 116.567C459.314 117.16 458.128 117.987 457.13 119.048C456.131 120.108 455.351 121.388 454.79 122.885C454.259 124.383 453.994 126.037 453.994 127.846ZM510.299 111.466V139.546H526.305V144.226H505.385V111.466H510.299ZM546.252 127.846C546.252 125.444 546.658 123.213 547.469 121.154C548.312 119.094 549.466 117.316 550.932 115.818C552.43 114.321 554.177 113.151 556.174 112.308C558.202 111.435 560.402 110.998 562.773 110.998C565.113 110.998 567.281 111.435 569.278 112.308C571.306 113.151 573.053 114.321 574.52 115.818C576.017 117.316 577.172 119.094 577.983 121.154C578.825 123.213 579.247 125.444 579.247 127.846C579.247 130.249 578.825 132.479 577.983 134.539C577.172 136.598 576.017 138.376 574.52 139.874C573.053 141.371 571.306 142.557 569.278 143.431C567.281 144.273 565.113 144.694 562.773 144.694C560.402 144.694 558.202 144.273 556.174 143.431C554.177 142.557 552.43 141.371 550.932 139.874C549.466 138.376 548.312 136.598 547.469 134.539C546.658 132.479 546.252 130.249 546.252 127.846ZM551.354 127.846C551.354 129.656 551.619 131.309 552.149 132.807C552.711 134.273 553.491 135.553 554.489 136.645C555.488 137.705 556.689 138.532 558.093 139.125C559.497 139.718 561.057 140.014 562.773 140.014C564.458 140.014 566.002 139.718 567.406 139.125C568.81 138.532 569.996 137.705 570.963 136.645C571.961 135.584 572.726 134.305 573.256 132.807C573.818 131.309 574.099 129.656 574.099 127.846C574.099 126.037 573.818 124.383 573.256 122.885C572.726 121.388 571.961 120.108 570.963 119.048C569.965 117.987 568.763 117.16 567.359 116.567C565.986 115.974 564.442 115.678 562.726 115.678C561.01 115.678 559.45 115.974 558.046 116.567C556.673 117.16 555.488 117.987 554.489 119.048C553.491 120.108 552.711 121.388 552.149 122.885C551.619 124.383 551.354 126.037 551.354 127.846ZM633.857 126.957C633.888 127.519 633.888 128.127 633.857 128.782C633.857 129.406 633.826 129.968 633.763 130.467C633.514 132.589 632.952 134.523 632.078 136.27C631.205 138.017 630.05 139.515 628.615 140.763C627.211 142.011 625.558 142.978 623.654 143.665C621.782 144.351 619.723 144.694 617.477 144.694C615.137 144.694 612.984 144.273 611.018 143.431C609.053 142.588 607.352 141.434 605.917 139.967C604.482 138.47 603.359 136.707 602.547 134.679C601.736 132.62 601.331 130.373 601.331 127.94C601.331 125.475 601.736 123.213 602.547 121.154C603.39 119.063 604.544 117.269 606.011 115.772C607.477 114.274 609.209 113.104 611.205 112.262C613.233 111.419 615.449 110.998 617.851 110.998C620.722 110.998 623.374 111.606 625.807 112.823C628.241 114.009 630.175 115.694 631.61 117.878L627.913 121.06C627.008 119.344 625.667 118.018 623.888 117.082C622.11 116.146 620.098 115.678 617.851 115.678C616.135 115.678 614.575 115.974 613.171 116.567C611.767 117.129 610.566 117.94 609.567 119.001C608.569 120.062 607.805 121.341 607.274 122.839C606.744 124.305 606.479 125.959 606.479 127.799C606.479 129.64 606.744 131.309 607.274 132.807C607.836 134.305 608.6 135.599 609.567 136.691C610.566 137.752 611.767 138.579 613.171 139.172C614.575 139.733 616.135 140.014 617.851 140.014C620.878 140.014 623.342 139.219 625.246 137.627C627.18 136.036 628.334 133.852 628.709 131.075H617.056V126.91L633.857 126.957ZM657.366 111.466H662.28V144.226H657.366V111.466ZM687.536 111.466H708.877V116.099H692.45V125.038H708.175L708.221 129.391H692.45V139.64H709.298V144.226H687.536V111.466ZM733.595 135.007C734.656 136.691 736.169 137.955 738.135 138.797C740.1 139.64 742.472 140.061 745.248 140.061C747.776 140.061 749.741 139.702 751.145 138.985C752.581 138.236 753.298 137.175 753.298 135.802C753.298 134.897 752.986 134.164 752.362 133.603C751.738 133.01 750.911 132.526 749.882 132.152C748.852 131.746 747.682 131.403 746.372 131.122C745.061 130.841 743.72 130.545 742.347 130.233C740.974 129.921 739.632 129.547 738.322 129.11C737.012 128.673 735.842 128.111 734.812 127.425C733.782 126.739 732.956 125.881 732.332 124.851C731.708 123.79 731.396 122.495 731.396 120.967C731.396 119.469 731.708 118.112 732.332 116.895C732.987 115.647 733.907 114.586 735.093 113.712C736.278 112.839 737.698 112.168 739.352 111.7C741.005 111.232 742.862 110.998 744.921 110.998C751.036 110.998 755.404 113.244 758.025 117.737L754.749 120.545C753.844 118.86 752.612 117.628 751.052 116.848C749.492 116.037 747.51 115.631 745.108 115.631C742.425 115.631 740.303 116.099 738.743 117.035C737.183 117.94 736.403 119.172 736.403 120.732C736.403 121.669 736.715 122.449 737.339 123.073C737.963 123.665 738.79 124.165 739.82 124.57C740.849 124.976 742.019 125.335 743.33 125.647C744.671 125.927 746.028 126.224 747.401 126.536C748.774 126.848 750.116 127.222 751.426 127.659C752.768 128.065 753.953 128.611 754.983 129.297C756.013 129.952 756.839 130.779 757.463 131.777C758.087 132.776 758.399 134.008 758.399 135.475C758.399 136.879 758.087 138.158 757.463 139.312C756.839 140.435 755.935 141.403 754.749 142.214C753.595 142.994 752.191 143.602 750.537 144.039C748.883 144.476 747.042 144.694 745.014 144.694C741.551 144.694 738.556 144.117 736.029 142.963C733.533 141.808 731.661 140.155 730.413 138.002L733.595 135.007Z" fill="black"/>
<defs>
<linearGradient id="paint0_linear_72_16" x1="155.042" y1="-3.24872" x2="9.64899" y2="61.4435" gradientUnits="userSpaceOnUse">
<stop stop-color="#DFDCFF"/>
<stop offset="1" stop-color="#6E5BFF"/>
</linearGradient>
<linearGradient id="paint1_linear_72_16" x1="155.042" y1="-3.24872" x2="9.64899" y2="61.4435" gradientUnits="userSpaceOnUse">
<stop stop-color="#DFDCFF"/>
<stop offset="1" stop-color="#6E5BFF"/>
</linearGradient>
<linearGradient id="paint2_linear_72_16" x1="155.042" y1="-3.24872" x2="9.64899" y2="61.4435" gradientUnits="userSpaceOnUse">
<stop stop-color="#DFDCFF"/>
<stop offset="1" stop-color="#6E5BFF"/>
</linearGradient>
<linearGradient id="paint3_linear_72_16" x1="140.349" y1="13.8563" x2="98.2444" y2="13.8563" gradientUnits="userSpaceOnUse">
<stop stop-color="#DCDEFF"/>
<stop offset="1" stop-color="#5D68FF"/>
</linearGradient>
<linearGradient id="paint4_linear_72_16" x1="-14.6928" y1="147.256" x2="130.7" y2="82.5634" gradientUnits="userSpaceOnUse">
<stop stop-color="#BCE0FA"/>
<stop offset="1" stop-color="#38ABFE"/>
</linearGradient>
<linearGradient id="paint5_linear_72_16" x1="-14.6928" y1="147.256" x2="130.7" y2="82.5634" gradientUnits="userSpaceOnUse">
<stop stop-color="#BCE0FA"/>
<stop offset="1" stop-color="#38ABFE"/>
</linearGradient>
<linearGradient id="paint6_linear_72_16" x1="-14.6928" y1="147.256" x2="130.7" y2="82.5634" gradientUnits="userSpaceOnUse">
<stop stop-color="#BCE0FA"/>
<stop offset="1" stop-color="#38ABFE"/>
</linearGradient>
<linearGradient id="paint7_linear_72_16" x1="9.06925e-06" y1="130.15" x2="44.0784" y2="130.15" gradientUnits="userSpaceOnUse">
<stop stop-color="#CBEBFF"/>
<stop offset="1" stop-color="#248AFF"/>
</linearGradient>
</defs>
</svg>
